<svg xmlns="http://www.w3.org/2000/svg" viewBox="0 0 12 12"><defs><style>.cls-1{fill:#fff;}</style></defs><g id="Layer_2" data-name="Layer 2"><g id="Layer_2-2" data-name="Layer 2"><path class="cls-1" d="M7.61,0l.85,0a5.69,5.69,0,0,1,.83.08A4.23,4.23,0,0,1,9.91.3a3.81,3.81,0,0,1,.57.3A2.42,2.42,0,0,1,11,1a2.84,2.84,0,0,1,.42.51,3.81,3.81,0,0,1,.29.57,4.08,4.08,0,0,1,.17.61,4,4,0,0,1,.08.84c0,.32,0,.6,0,.85S12,5.18,12,6s0,1.36,0,1.61,0,.54,0,.85a5.69,5.69,0,0,1-.08.83,4.23,4.23,0,0,1-.17.62,3.81,3.81,0,0,1-.3.57A2.42,2.42,0,0,1,11,11a2.84,2.84,0,0,1-.51.42,3.81,3.81,0,0,1-.57.29,4.08,4.08,0,0,1-.61.17,4,4,0,0,1-.84.08l-.85,0H6c-.82,0-1.36,0-1.61,0l-.85,0a5.69,5.69,0,0,1-.83-.08,4.23,4.23,0,0,1-.62-.17,3.81,3.81,0,0,1-.57-.3A2.42,2.42,0,0,1,1,11a2.84,2.84,0,0,1-.42-.51A3.81,3.81,0,0,1,.3,9.91,4.08,4.08,0,0,1,.13,9.3a4,4,0,0,1-.08-.84c0-.32,0-.6,0-.85S0,6.82,0,6,0,4.64,0,4.39s0-.54,0-.85a5.69,5.69,0,0,1,.08-.83A4.23,4.23,0,0,1,.3,2.09a3.81,3.81,0,0,1,.3-.57A2.42,2.42,0,0,1,1,1,2.84,2.84,0,0,1,1.52.59,3.81,3.81,0,0,1,2.09.3,4.08,4.08,0,0,1,2.7.13,4,4,0,0,1,3.54.05l.85,0H6C6.82,0,7.36,0,7.61,0ZM4.42,1.1l-.86,0a4.33,4.33,0,0,0-.69.09,2.48,2.48,0,0,0-.43.13,1.16,1.16,0,0,0-.37.18,1.86,1.86,0,0,0-.31.26,1.79,1.79,0,0,0-.25.31,1.86,1.86,0,0,0-.2.37,2.51,2.51,0,0,0-.11.42,3.57,3.57,0,0,0-.08.71q0,.48,0,.84c0,.24,0,.77,0,1.57s0,1.34,0,1.58,0,.53,0,.86a4.33,4.33,0,0,0,.09.69,2.48,2.48,0,0,0,.13.43,1.16,1.16,0,0,0,.18.37,1.86,1.86,0,0,0,.26.31,1.79,1.79,0,0,0,.31.25,1.86,1.86,0,0,0,.37.2,2.51,2.51,0,0,0,.42.11,3.57,3.57,0,0,0,.71.08l.84,0H6c.81,0,1.34,0,1.58,0l.86,0a4.33,4.33,0,0,0,.69-.09,2.48,2.48,0,0,0,.43-.13,1.16,1.16,0,0,0,.37-.18,1.86,1.86,0,0,0,.31-.26,1.79,1.79,0,0,0,.25-.31,1.86,1.86,0,0,0,.2-.37,2.51,2.51,0,0,0,.11-.42,3.57,3.57,0,0,0,.08-.71q0-.48,0-.84c0-.24,0-.77,0-1.57s0-1.34,0-1.58,0-.53,0-.86a4.33,4.33,0,0,0-.09-.69,2.48,2.48,0,0,0-.13-.43,1.16,1.16,0,0,0-.18-.37,1.86,1.86,0,0,0-.26-.31,1.79,1.79,0,0,0-.31-.25,1.86,1.86,0,0,0-.37-.2,2.51,2.51,0,0,0-.42-.11,3.57,3.57,0,0,0-.71-.08l-.84,0H6C5.19,1.08,4.66,1.08,4.42,1.1ZM7.21,3.15A3.08,3.08,0,0,1,8.85,4.79a3.17,3.17,0,0,1,0,2.42A3.08,3.08,0,0,1,7.21,8.85a3.17,3.17,0,0,1-2.42,0A3.08,3.08,0,0,1,3.15,7.21a3.17,3.17,0,0,1,0-2.42A3.08,3.08,0,0,1,4.79,3.15a3.17,3.17,0,0,1,2.42,0Zm.21,4.27a2,2,0,0,0,0-2.84,2,2,0,0,0-2.84,0,2,2,0,0,0,0,2.84,2,2,0,0,0,2.84,0ZM9.71,2.29a.66.66,0,0,0-.5-.2.69.69,0,0,0-.51.2.65.65,0,0,0-.22.5.7.7,0,0,0,.22.51.7.7,0,0,0,.51.22.67.67,0,0,0,.5-.22.72.72,0,0,0,.2-.51A.65.65,0,0,0,9.71,2.29Z"/></g></g></svg>