<svg xmlns="http://www.w3.org/2000/svg" viewBox="0 0 14.9 12.01"><defs><style>.cls-1{fill:#fff;}</style></defs><g id="Layer_2" data-name="Layer 2"><g id="Layer_2-2" data-name="Layer 2"><path class="cls-1" d="M14.77,2.7A3.18,3.18,0,0,0,13.38.6,5.11,5.11,0,0,0,10.51,0C9.94,0,3.53,0,2.7.13A3.16,3.16,0,0,0,.6,1.52,5.11,5.11,0,0,0,0,4.39,41.39,41.39,0,0,0,.13,9.3a3.18,3.18,0,0,0,1.39,2.11A5.29,5.29,0,0,0,4.39,12c.58,0,7,0,7.81-.12a3.12,3.12,0,0,0,2.1-1.38,5.13,5.13,0,0,0,.58-2.88A41.39,41.39,0,0,0,14.77,2.7ZM4.42,1.1c.5,0,6.93-.06,7.6.1a2.73,2.73,0,0,1,.71.26L7.52,6.67a.1.1,0,0,1-.14,0l-5.2-5.2A5,5,0,0,1,4.42,1.1Zm9.28,8a2,2,0,0,1-.88,1.36,4.69,4.69,0,0,1-2.34.42c-.5,0-6.93.05-7.6-.1a2,2,0,0,1-1.36-.88A4.62,4.62,0,0,1,1.1,7.59a39.7,39.7,0,0,1,.1-4.71,2.64,2.64,0,0,1,.17-.52L6.53,7.52a1.3,1.3,0,0,0,1.84,0l5.15-5.15a5.85,5.85,0,0,1,.28,2.05A39.7,39.7,0,0,1,13.7,9.13Z"/></g></g></svg>